<?xml version="1.0" standalone="no"?>
<!DOCTYPE svg PUBLIC "-//W3C//DTD SVG 20010904//EN"
 "http://www.w3.org/TR/2001/REC-SVG-20010904/DTD/svg10.dtd">
<svg version="1.0" xmlns="http://www.w3.org/2000/svg"
 width="916.000000pt" height="915.000000pt" viewBox="0 0 916.000000 915.000000"
 preserveAspectRatio="xMidYMid meet">
<metadata>
Created by potrace 1.16, written by Peter Selinger 2001-2019
</metadata>
<g transform="translate(0.000000,915.000000) scale(0.100000,-0.100000)"
fill="#000000" stroke="none">
<path d="M0 9094 l0 -54 340 2 c264 2 340 6 340 16 0 6 9 12 21 12 14 0 19 -5
16 -14 -8 -20 3 -27 25 -15 20 11 436 13 1093 5 520 -6 752 -16 809 -33 l30
-9 -2 -323 c-1 -177 -4 -326 -7 -330 -2 -4 -5 -109 -6 -232 l-3 -224 -34 -73
c-35 -73 -35 -74 -23 -139 13 -71 8 -95 -8 -42 l-11 34 4 -35 3 -34 -38 44
c-46 53 -62 49 -19 -5 16 -21 31 -45 31 -54 5 -56 4 -73 -3 -77 -4 -3 -10 6
-14 20 -3 13 -12 27 -19 30 -9 3 -11 -2 -8 -15 3 -10 1 -19 -3 -19 -15 0 -76
41 -95 63 -10 12 -18 16 -19 10 0 -18 55 -68 94 -87 29 -14 35 -22 41 -63 5
-35 3 -48 -8 -54 -9 -5 -13 -18 -9 -34 4 -24 3 -25 -22 -15 -15 5 -37 10 -49
10 -20 0 -19 -1 7 -29 30 -32 22 -47 -19 -37 -18 5 -23 3 -19 -8 4 -9 -8 -19
-38 -29 -24 -9 -35 -16 -25 -16 11 -1 15 -6 11 -12 -5 -8 -1 -8 14 0 28 15 42
14 42 -3 0 -8 -10 -17 -22 -20 -13 -3 -32 -13 -43 -21 -17 -14 -18 -17 -5 -25
9 -6 10 -10 3 -10 -18 0 -53 -41 -53 -61 0 -10 12 -22 28 -27 26 -10 26 -10
-13 -12 l-40 -2 33 -14 c38 -17 42 -28 6 -21 -21 4 -25 1 -22 -16 2 -13 13
-23 27 -27 22 -5 21 -6 -13 -20 -50 -19 -60 -33 -44 -59 11 -18 10 -23 -7 -35
-19 -15 -19 -15 -1 -16 17 0 17 -1 2 -25 -21 -33 -20 -44 4 -38 28 7 25 -11
-4 -31 -18 -11 -23 -21 -19 -37 4 -15 3 -20 -5 -15 -11 7 -16 -17 -15 -61 1
-7 -3 -13 -8 -13 -5 0 -9 -4 -9 -9 0 -5 8 -8 18 -7 11 0 16 -5 13 -14 -2 -8
-5 -29 -6 -47 -1 -17 -7 -39 -15 -47 -10 -13 -10 -16 0 -16 10 0 10 -4 -1 -16
-10 -13 -10 -17 1 -24 7 -4 10 -15 7 -23 -3 -8 -3 -18 1 -22 4 -4 8 -91 8
-193 2 -217 10 -378 25 -483 5 -41 11 -90 13 -109 10 -110 19 -160 32 -171 21
-18 8 -28 -47 -35 -60 -8 -94 -33 -102 -74 -4 -16 -7 -31 -6 -33 0 -1 -7 -24
-16 -52 -15 -50 -21 -208 -9 -240 4 -8 26 -29 49 -45 67 -46 73 -64 120 -370
51 -336 168 -592 307 -673 37 -21 73 -36 223 -93 11 -4 33 -9 49 -11 16 -2 35
-8 42 -14 8 -6 21 -9 30 -5 8 3 24 1 35 -5 11 -5 45 -13 77 -17 91 -11 472 -6
522 7 25 7 59 14 75 17 166 31 307 141 406 319 65 115 217 428 249 511 39 101
66 140 116 164 43 21 116 26 157 11 42 -16 94 -81 112 -140 48 -157 124 -359
171 -453 74 -147 219 -337 252 -330 8 2 11 -1 7 -7 -3 -6 1 -11 9 -11 9 0 16
-5 16 -11 0 -5 4 -7 10 -4 5 3 22 0 37 -8 101 -53 255 -76 508 -77 195 -1 310
12 483 55 171 43 255 82 320 148 116 118 195 362 237 732 12 102 24 156 42
198 25 55 47 78 36 37 -3 -11 -9 -20 -13 -20 -8 0 -1 -49 9 -65 4 -5 7 -38 6
-72 -1 -38 3 -59 8 -56 6 4 8 -2 5 -13 -2 -10 1 -59 8 -109 l12 -90 -1 70 c0
39 4 92 10 120 7 31 8 54 2 61 -14 17 7 65 25 58 8 -3 17 -1 21 5 3 7 -2 11
-14 11 -12 0 -21 5 -21 10 0 6 7 10 16 10 13 0 15 7 10 32 -6 30 -5 31 10 16
15 -15 18 -15 45 1 32 18 80 112 60 119 -8 3 -5 10 8 21 10 9 21 27 23 41 4
31 48 46 88 30 60 -25 89 -116 59 -185 -10 -22 -13 -96 -14 -270 l0 -240 -52
-125 c-38 -93 -55 -149 -64 -215 -12 -90 -48 -274 -68 -350 -6 -22 -24 -97
-41 -167 -30 -131 -65 -224 -87 -233 -7 -2 -13 2 -13 10 0 8 -5 15 -11 15 -6
0 -8 8 -4 19 3 11 0 23 -6 27 -9 5 -10 2 -6 -10 4 -11 3 -15 -4 -10 -6 3 -8
17 -4 31 3 14 2 22 -4 19 -5 -4 -7 3 -4 15 4 12 0 25 -8 30 -11 7 -10 9 5 9
12 0 16 5 12 15 -3 8 -9 22 -13 32 -4 11 -3 14 5 9 17 -10 15 27 -3 70 -13 31
-13 35 0 31 9 -4 12 -1 8 9 -3 7 -9 14 -13 14 -22 0 -14 65 13 108 5 6 6 16 2
21 -3 6 -1 29 5 53 6 24 12 72 14 108 2 36 9 120 16 188 11 111 10 145 -5 130
-3 -3 -6 -35 -6 -71 -1 -37 -5 -65 -9 -62 -4 2 -6 -11 -4 -30 1 -19 -2 -38 -7
-41 -6 -3 -7 -14 -4 -24 3 -10 1 -27 -4 -37 -12 -22 -25 -91 -22 -115 1 -10
-3 -18 -10 -18 -6 0 -9 -8 -6 -20 3 -11 1 -23 -4 -26 -6 -3 -9 -13 -8 -22 1
-10 0 -19 -1 -22 -1 -3 -3 -21 -5 -40 -1 -19 -5 -55 -8 -80 -3 -25 -7 -116 -9
-202 -2 -87 -6 -158 -10 -158 -3 0 -4 -10 -1 -21 5 -18 3 -20 -16 -14 -20 6
-22 5 -12 -13 15 -28 14 -32 -4 -26 -19 8 -19 -6 1 -34 8 -12 11 -22 5 -22 -5
0 -13 5 -16 10 -3 6 -11 10 -16 10 -6 0 1 -15 14 -33 38 -51 22 -66 -24 -21
-22 21 -39 33 -39 27 0 -7 4 -15 10 -18 19 -12 10 -26 -12 -19 -22 6 -22 6 -5
-13 9 -11 14 -23 10 -26 -3 -4 -1 -7 5 -7 7 0 12 -4 12 -9 0 -11 -19 -9 -38 3
-7 4 -16 5 -19 2 -4 -3 -2 -6 4 -6 12 0 25 -39 16 -53 -3 -5 -19 6 -35 25 -30
34 -32 32 -8 -15 11 -22 11 -30 2 -36 -10 -6 -10 -15 -2 -35 8 -21 7 -28 -4
-32 -9 -3 -12 -12 -9 -21 4 -11 2 -14 -5 -9 -7 4 -12 14 -12 22 0 17 -20 19
-21 2 0 -7 -5 -2 -10 12 -10 24 -11 24 -21 6 -8 -15 -7 -21 6 -28 9 -5 16 -14
16 -19 0 -6 -8 -3 -17 7 -21 20 -29 4 -13 -26 15 -27 6 -37 -14 -17 -12 12
-14 27 -9 63 5 35 3 45 -6 40 -6 -4 -9 -16 -6 -27 4 -13 2 -19 -9 -19 -13 0
-14 -5 -6 -26 13 -34 13 -38 -3 -22 -26 26 -38 59 -39 109 -1 37 -5 49 -15 45
-7 -3 -13 -1 -13 4 0 6 -5 10 -11 10 -6 0 -8 -8 -4 -19 3 -11 2 -28 -4 -38
-22 -42 -51 -123 -49 -140 4 -51 -3 -83 -18 -83 -12 0 -14 -7 -9 -31 5 -22 4
-29 -4 -25 -7 4 -11 0 -11 -12 0 -10 -3 -22 -7 -26 -5 -4 -9 -17 -9 -29 -3
-47 -8 -86 -11 -83 -2 2 -18 -10 -36 -26 -17 -17 -33 -25 -35 -19 -8 24 -22 9
-22 -24 0 -37 -8 -43 -28 -23 -7 7 -12 8 -12 2 0 -6 6 -16 13 -23 10 -10 8
-15 -8 -27 -16 -12 -18 -18 -7 -34 7 -11 8 -20 3 -20 -5 0 -16 -3 -25 -6 -11
-4 -16 -1 -16 10 0 9 -4 16 -9 16 -11 0 -24 -67 -16 -80 3 -6 0 -10 -8 -10 -8
0 -21 -14 -30 -31 l-15 -31 -16 23 c-13 20 -16 21 -16 6 0 -11 -5 -15 -11 -11
-7 4 -9 25 -5 58 4 30 2 62 -4 76 l-10 25 3 -28 c3 -15 0 -51 -5 -80 -11 -59
-30 -89 -27 -42 1 17 -1 49 -5 73 -5 25 -4 48 2 55 6 7 11 32 13 57 2 31 10
52 25 66 14 13 25 40 29 68 9 58 25 70 26 19 0 -21 3 -31 6 -23 16 44 38 86
50 93 7 4 13 15 13 23 0 8 5 12 10 9 6 -3 11 0 12 7 5 48 5 79 -3 123 -13 76
-17 108 -18 131 -1 12 -10 31 -20 43 -11 13 -21 26 -23 30 -5 11 -104 91 -113
91 -8 0 -27 12 -181 113 -39 26 -74 47 -77 47 -16 0 -5 -21 26 -50 30 -27 33
-36 30 -72 -3 -27 -1 -38 7 -33 6 4 20 -3 31 -16 18 -21 28 -41 12 -25 -4 3
-13 -4 -20 -16 -7 -13 -12 -17 -13 -9 0 7 -6 11 -14 8 -8 -3 -22 3 -32 14 -10
11 -24 17 -31 15 -7 -3 -15 -1 -18 4 -4 6 -11 10 -17 10 -8 0 32 -37 48 -44 1
-1 4 -17 8 -36 3 -19 3 -29 0 -22 -3 7 -19 19 -34 27 -22 11 -29 12 -33 2 -3
-7 -20 3 -47 28 -34 32 -40 35 -30 15 7 -14 22 -36 34 -50 23 -28 -77 63 -105
95 -14 16 -20 18 -30 7 -11 -10 -10 -12 2 -12 13 0 39 -37 39 -55 0 -11 -78
41 -103 69 -15 17 -25 23 -21 14 8 -24 1 -23 -45 6 -21 14 -41 23 -44 20 -3
-3 -4 2 -4 11 2 12 -15 23 -53 37 -30 11 -61 25 -67 30 -15 12 -7 56 14 76 19
20 17 44 -4 38 -27 -8 -193 -15 -210 -9 -12 5 -12 7 -1 14 10 7 10 9 1 9 -7 0
-13 7 -13 15 0 12 -6 11 -32 -5 -17 -10 -35 -17 -39 -14 -5 2 -13 -5 -19 -16
-6 -11 -16 -20 -22 -20 -25 0 -78 -51 -78 -76 0 -13 -4 -24 -10 -24 -5 0 -7 7
-4 15 4 8 1 15 -5 15 -6 0 -11 -7 -11 -15 0 -8 -4 -15 -10 -15 -5 0 -10 -6
-10 -14 0 -22 -29 -41 -42 -28 -18 18 -28 15 -28 -8 0 -18 -5 -19 -47 -14 -27
4 -58 13 -71 21 -12 7 -27 11 -32 8 -6 -3 -10 1 -10 9 0 9 -6 16 -13 16 -7 0
-26 13 -43 28 -30 30 -58 46 -136 82 -79 36 -248 39 -293 6 -17 -12 -17 -15
-2 -37 10 -13 17 -19 17 -14 0 6 5 3 10 -5 9 -13 11 -13 19 -1 11 18 135 9
197 -13 22 -8 54 -16 70 -18 16 -2 34 -9 39 -16 6 -7 30 -15 53 -16 23 -2 49
-9 57 -16 19 -16 19 -40 1 -40 -18 0 -28 -25 -21 -53 5 -18 1 -22 -22 -24 -15
0 -33 -9 -40 -19 -7 -10 -13 -12 -13 -6 0 7 -7 12 -15 12 -9 0 -12 -6 -9 -17
4 -13 -1 -10 -16 7 -20 22 -23 23 -31 7 -6 -9 -17 -17 -24 -17 -24 0 -17 20
10 30 14 5 25 14 25 19 0 13 -39 9 -68 -7 -14 -8 -22 -9 -22 -2 0 5 -7 10 -16
10 -8 0 -13 -4 -10 -9 3 -5 -1 -12 -10 -15 -24 -9 -31 -7 -14 4 8 5 10 10 4
10 -13 0 -13 48 -1 68 5 6 4 12 -1 12 -14 0 -33 -26 -25 -33 3 -4 1 -7 -5 -7
-7 0 -14 0 -17 0 -3 0 -22 -9 -42 -20 -44 -23 -58 -17 -23 10 l25 19 -25 -6
c-24 -5 -25 -5 -5 11 16 13 17 15 2 10 -14 -5 -16 -2 -10 12 7 18 6 18 -11 1
-10 -10 -31 -21 -47 -24 -16 -3 -32 -10 -35 -14 -3 -5 -13 -9 -22 -9 -13 1 -8
8 16 30 53 48 18 34 -45 -18 -73 -61 -85 -68 -77 -48 3 9 10 16 16 16 5 0 7 4
4 9 -4 5 9 21 26 37 18 15 33 32 33 38 1 6 7 10 15 8 12 -3 12 -1 3 8 -14 15
-36 3 -29 -16 3 -8 0 -11 -9 -8 -7 3 -19 -4 -25 -16 -7 -13 -17 -19 -26 -16
-9 3 -29 -10 -50 -34 -20 -22 -40 -40 -44 -40 -17 0 -1 53 24 79 35 36 33 45
-5 26 -17 -9 -35 -29 -41 -46 -11 -31 -23 -37 -32 -16 -3 6 -4 3 -3 -8 1 -12
-5 -21 -17 -23 -14 -3 -17 0 -13 13 4 9 3 14 -2 11 -12 -8 -51 -83 -45 -88 2
-3 -3 -5 -11 -5 -11 0 -12 4 -4 14 6 7 9 20 5 28 -3 8 -1 15 4 15 6 0 10 6 10
14 0 8 18 29 40 46 22 17 38 36 34 41 -3 5 -16 -4 -30 -20 -14 -17 -34 -33
-44 -36 -11 -3 -19 -9 -18 -13 1 -4 -3 -22 -10 -40 -10 -28 -15 -32 -33 -27
-17 6 -21 4 -16 -7 3 -9 -1 -15 -9 -15 -16 0 -18 9 -5 22 5 6 12 21 15 35 l7
25 -20 -22 c-10 -13 -24 -23 -30 -23 -5 0 -14 -7 -19 -16 -8 -15 -10 -14 -16
1 -4 12 1 26 15 42 22 23 22 23 2 23 -12 0 -23 -5 -25 -10 -2 -6 -22 -13 -46
-15 -32 -3 -42 -1 -42 10 0 8 3 15 8 15 10 0 62 46 62 55 0 5 -11 -2 -24 -14
-39 -37 -49 -20 -14 23 l32 39 -30 -19 -29 -19 18 27 c9 15 17 31 17 35 0 4
-4 2 -8 -5 -5 -7 -21 -15 -37 -18 l-28 -5 28 38 c38 52 61 73 125 116 30 21
63 43 73 49 9 7 17 15 17 19 0 10 -53 -2 -75 -17 -11 -8 -30 -14 -43 -14 -13
0 -38 -11 -55 -23 -18 -13 -48 -30 -67 -38 -19 -7 -57 -28 -84 -46 -27 -17
-70 -37 -97 -44 -29 -8 -65 -27 -91 -51 -24 -21 -46 -38 -49 -38 -15 0 -68
-58 -80 -87 -8 -18 -18 -33 -23 -33 -5 0 -6 -13 -3 -29 4 -20 1 -33 -9 -42 -8
-6 -12 -20 -9 -30 3 -9 1 -20 -5 -24 -13 -8 -13 -55 0 -55 6 0 10 -7 10 -15 0
-8 5 -15 10 -15 6 0 10 -11 10 -24 0 -20 4 -24 20 -21 19 4 20 0 17 -43 -7
-91 -62 -220 -84 -198 -3 3 -1 6 6 6 7 0 9 5 6 10 -5 8 -11 7 -21 -1 -11 -9
-14 -6 -15 17 -2 37 -2 35 7 58 6 16 4 18 -14 14 -25 -7 -31 19 -9 41 8 10 8
12 0 7 -17 -9 -27 12 -13 29 23 27 -2 15 -26 -12 -23 -27 -24 -27 -24 -5 0 12
-4 22 -10 22 -5 0 -10 7 -10 16 0 8 -4 13 -9 10 -4 -3 -6 6 -3 19 4 23 -4 30
-30 26 -12 -2 -10 37 2 44 5 3 10 11 10 16 0 6 -5 7 -12 3 -8 -5 -9 -2 -4 11
6 18 6 18 -15 -1 -21 -18 -22 -18 -16 0 6 14 4 17 -9 12 -13 -5 -15 -2 -11 15
3 11 3 27 0 35 -6 16 -23 19 -23 4 0 -6 -9 -20 -20 -32 -17 -19 -20 -19 -20
-5 0 9 5 17 10 17 6 0 10 7 10 16 0 8 -4 12 -10 9 -6 -4 -7 1 -3 11 5 13 3 16
-10 11 -21 -8 -12 19 16 50 11 13 17 26 13 30 -4 5 -14 -1 -22 -11 -14 -19
-94 -32 -94 -15 0 4 15 20 33 34 17 15 24 25 14 21 -15 -5 -16 -3 -3 17 14 21
13 22 -9 23 -14 1 -25 -2 -25 -8 0 -5 6 -6 13 -2 8 5 8 2 -2 -9 -7 -9 -19 -17
-25 -17 -6 0 -4 5 4 11 12 9 10 10 -8 6 -19 -4 -21 -3 -12 8 7 8 9 19 5 26 -6
8 -10 7 -16 -2 -6 -10 -9 -7 -9 10 0 13 12 45 26 70 15 25 21 40 13 34 -22
-21 -41 -16 -34 10 l6 22 -17 -23 c-21 -28 -38 -29 -23 0 8 16 9 23 1 26 -6 2
-8 10 -5 18 3 8 -1 14 -7 14 -9 0 -8 6 4 19 17 19 7 39 -14 26 -5 -3 -10 1
-10 9 0 8 4 18 10 21 6 4 5 18 -4 38 -7 18 -14 66 -15 107 -1 41 -4 77 -7 79
-8 8 -16 -8 -19 -36 -1 -15 -6 -39 -12 -53 -6 -14 -14 -41 -18 -60 -4 -19 -16
-45 -25 -58 -20 -25 -27 -117 -8 -106 10 7 3 -27 -12 -55 -4 -7 -5 -33 -2 -58
4 -33 0 -48 -14 -64 -18 -20 -18 -21 -1 -34 15 -11 16 -17 6 -39 -7 -14 -16
-23 -21 -20 -5 3 -6 -6 -2 -20 4 -16 2 -26 -5 -26 -6 0 -11 -9 -11 -21 0 -11
4 -17 10 -14 5 3 10 1 10 -5 0 -6 5 -8 10 -5 6 3 10 -1 10 -9 0 -9 -10 -18
-23 -21 -13 -4 -24 -12 -24 -18 0 -7 -2 -16 -3 -22 -7 -29 2 -38 16 -15 12 21
14 22 12 5 -1 -11 2 -26 6 -34 7 -11 5 -13 -6 -8 -12 4 -17 -3 -22 -24 -3 -18
-12 -29 -22 -29 -11 0 -15 6 -11 20 7 26 -5 26 -21 0 -14 -22 -10 -22 -347 -5
-55 3 -197 10 -315 15 -245 11 -794 37 -950 45 -147 8 -307 24 -358 37 -24 6
-51 22 -62 36 -12 15 -20 19 -21 11 0 -8 -6 2 -13 21 l-13 35 -6 -55 c-4 -30
-7 -395 -7 -812 0 -596 3 -757 13 -761 9 -4 9 -6 0 -6 -10 -1 -13 -141 -13
-666 l0 -665 31 0 c24 0 30 4 25 15 -3 9 0 15 9 15 7 0 16 -8 18 -17 4 -17 5
-17 6 0 1 11 9 17 24 17 17 0 23 6 23 20 -1 10 3 19 8 19 5 -1 12 5 17 12 4 8
11 10 16 5 4 -4 0 -12 -10 -17 -10 -6 -17 -22 -17 -39 0 -33 16 -41 23 -12 4
16 5 16 6 0 1 -17 58 -18 1056 -18 l1054 0 0 108 c1 173 9 341 20 427 15 115
22 206 22 309 0 50 5 134 10 186 6 52 12 131 15 175 6 95 29 239 51 315 17 63
107 256 130 283 22 23 26 22 46 -13 10 -16 29 -33 43 -36 16 -4 23 -12 20 -20
-3 -8 -2 -13 2 -13 22 4 32 -3 32 -22 0 -11 4 -18 9 -14 5 3 19 -8 30 -24 12
-16 17 -32 12 -35 -5 -3 -7 -15 -4 -26 3 -13 0 -20 -8 -20 -10 -1 -8 -4 4 -11
19 -11 23 -49 6 -66 -7 -7 -9 -20 -5 -30 6 -15 8 -15 16 -3 6 8 10 11 11 5 0
-5 4 -1 9 10 8 19 9 19 9 -2 1 -12 -3 -25 -9 -28 -5 -3 -10 -16 -10 -28 0 -17
2 -19 10 -7 6 10 9 -2 8 -39 0 -29 3 -55 6 -58 3 -4 6 1 6 10 0 9 3 17 8 17 8
0 7 -122 -2 -165 -6 -29 -6 -29 4 -5 11 25 12 25 26 5 8 -11 13 -30 11 -43 -2
-12 -2 -20 1 -18 3 3 11 -2 18 -12 9 -12 9 -19 1 -24 -7 -4 -1 -11 15 -17 29
-11 63 -64 55 -85 -3 -7 8 -20 24 -30 26 -15 48 -62 49 -106 1 -8 10 -31 21
-50 15 -27 19 -29 14 -10 -4 14 -9 36 -12 50 l-5 25 21 -25 c25 -30 54 -84 87
-160 l24 -55 -32 36 c-18 19 -38 44 -45 55 -9 14 -12 15 -12 4 -1 -8 10 -28
24 -44 14 -16 25 -32 25 -35 0 -3 10 -18 23 -31 46 -52 62 -73 50 -67 -16 10
-28 -12 -14 -26 9 -9 14 -8 22 3 9 12 10 12 5 -3 -3 -10 -6 -21 -6 -24 0 -3
-7 0 -15 7 -8 7 -15 8 -15 2 0 -5 -9 -12 -20 -15 -27 -7 -25 -21 6 -42 26 -17
27 -17 21 4 -7 28 21 28 51 1 23 -21 31 -57 11 -44 -9 5 -10 -1 -5 -21 6 -22
4 -26 -8 -22 -18 7 -30 -8 -21 -23 5 -8 11 -7 21 1 11 9 14 8 14 -7 0 -16 2
-17 10 -4 7 10 8 3 5 -25 -3 -22 -3 -34 1 -27 9 19 27 14 19 -6 -5 -13 -3 -14
6 -5 9 9 15 9 25 -2 8 -7 14 -18 14 -24 0 -6 5 -11 10 -11 6 0 10 -4 10 -10 0
-16 -18 -12 -40 10 -28 28 -31 25 -14 -10 11 -20 20 -27 31 -23 10 4 14 2 9
-5 -3 -6 -2 -13 4 -17 7 -4 7 -12 0 -26 -9 -15 -7 -19 5 -19 8 0 15 -4 15 -10
0 -5 7 -10 16 -10 9 0 12 5 8 12 -4 7 -3 8 5 4 6 -4 9 -12 6 -17 -4 -5 -2 -9
2 -9 5 0 13 -8 18 -18 46 -83 44 -82 123 -82 68 0 88 9 59 27 -13 9 -62 101
-62 119 0 6 -6 18 -13 26 -6 8 -9 18 -5 21 3 4 1 7 -5 7 -7 0 -12 9 -12 20 0
20 -48 119 -63 131 -4 3 -5 13 -1 22 4 12 2 16 -8 12 -9 -4 -18 11 -30 47 -27
88 -52 153 -63 160 -5 4 -6 8 -2 8 4 0 -4 12 -18 27 -14 15 -25 31 -25 35 0
19 39 5 66 -22 41 -43 115 -82 84 -45 -7 8 -18 15 -26 15 -7 0 -15 4 -18 9 -3
4 6 6 20 3 14 -2 30 -15 36 -28 6 -13 28 -32 50 -41 21 -9 38 -21 38 -26 0 -4
4 -6 8 -3 5 3 35 -13 68 -34 32 -22 67 -40 77 -40 25 0 127 -49 127 -61 0 -5
12 -14 26 -19 14 -6 52 -30 84 -55 53 -41 60 -44 69 -28 9 16 13 15 43 -14 18
-17 48 -40 67 -51 31 -19 35 -19 50 -5 12 12 13 17 3 21 -18 6 -34 39 -22 47
5 3 17 -9 26 -27 19 -39 97 -113 102 -98 2 5 10 10 17 10 7 0 15 6 18 13 3 8
7 6 11 -5 18 -51 20 -53 24 -15 4 41 22 48 57 23 11 -7 46 -17 78 -20 48 -6
62 -5 78 10 10 9 19 12 19 7 0 -6 14 -16 30 -23 17 -7 30 -17 30 -23 0 -5 15
-25 34 -43 19 -18 31 -35 28 -38 -3 -3 5 -6 19 -6 23 0 23 1 -7 22 -39 27 -59
67 -36 69 10 1 21 1 26 0 16 -3 107 21 102 27 -3 3 -29 5 -57 6 -31 1 -54 6
-56 13 -3 9 11 11 54 6 32 -3 68 -6 80 -7 11 0 19 -4 17 -8 -2 -4 5 -9 16 -13
11 -3 20 -12 20 -18 1 -7 7 -1 14 12 8 15 16 20 20 12 10 -16 36 -14 36 4 0 8
8 16 18 16 78 7 93 5 102 -10 4 -9 12 -12 16 -8 5 5 2 12 -6 17 -11 7 -9 11
13 19 34 13 35 25 2 19 -21 -5 -25 -2 -20 13 4 11 2 19 -5 19 -6 0 -8 5 -5 10
3 6 11 10 16 10 6 0 7 -4 4 -10 -3 -5 -2 -10 4 -10 5 0 15 8 21 18 9 15 10 14
5 -5 -4 -14 -2 -23 5 -23 7 0 14 9 17 20 3 11 12 20 19 20 8 0 14 6 14 13 0
14 49 39 61 31 5 -3 9 -12 9 -21 0 -15 2 -15 18 0 14 13 21 14 30 5 16 -16 29
-1 16 20 -12 19 -1 62 15 62 7 0 7 -8 2 -23 -6 -14 -4 -26 4 -34 10 -9 15 -3
24 27 10 33 20 44 64 66 74 38 97 39 97 6 0 -15 7 -47 15 -72 l14 -45 -2 52
c-1 29 -5 53 -9 53 -5 0 -8 7 -8 15 0 8 5 15 10 15 6 0 10 -4 10 -9 0 -5 6
-11 13 -14 8 -3 12 6 13 24 1 38 30 79 54 79 11 0 20 5 20 10 0 6 5 10 10 10
11 0 13 -30 4 -54 -3 -9 -11 -16 -16 -16 -6 0 -8 7 -5 15 4 8 2 17 -3 20 -6 4
-10 -4 -10 -17 0 -13 -5 -29 -12 -36 -6 -6 -9 -14 -6 -18 10 -9 46 18 60 46 7
14 14 27 15 29 1 2 9 -2 18 -9 10 -8 15 -9 15 -1 0 6 -4 11 -9 11 -5 0 -11 13
-13 30 -3 20 0 30 8 30 7 0 16 10 20 23 7 21 8 21 16 -8 5 -20 3 -44 -7 -74
-8 -25 -15 -54 -14 -65 0 -20 1 -20 11 2 6 12 14 22 17 22 3 0 7 17 9 37 4 61
69 170 89 150 3 -4 1 -30 -5 -58 -19 -79 -16 -107 11 -112 22 -4 22 -4 -2 -6
-16 -1 -21 -6 -18 -16 4 -8 2 -17 -4 -20 -14 -10 0 -25 24 -26 14 -1 16 -3 6
-6 -22 -5 -59 -87 -59 -128 0 -19 -4 -35 -9 -35 -5 0 -12 -16 -16 -36 -4 -24
-13 -38 -26 -41 -13 -4 -19 -14 -19 -32 0 -35 -25 -104 -39 -109 -6 -2 -11
-15 -11 -28 0 -23 2 -24 79 -24 77 0 80 1 101 30 12 17 26 28 31 25 5 -4 9 3
9 14 0 11 6 26 13 33 12 13 59 76 102 138 14 19 29 45 35 58 5 12 19 32 30 44
11 12 20 27 20 33 0 6 10 19 21 29 15 12 18 20 10 25 -8 5 -5 14 9 31 11 13
20 32 20 42 0 11 5 16 10 13 6 -3 10 1 10 10 0 13 -4 14 -20 5 -25 -14 -25 -3
0 35 l20 30 0 -25 c1 -22 2 -23 11 -7 5 9 8 21 4 26 -3 5 0 13 6 16 5 4 8 14
5 22 -4 9 4 23 19 35 17 13 25 29 25 50 0 40 40 125 62 131 9 3 21 0 27 -6 7
-7 8 -3 4 12 -3 11 -9 21 -14 21 -5 0 -9 7 -9 15 0 8 7 15 15 15 8 0 12 6 9
13 -3 8 6 18 21 25 14 6 25 16 25 22 0 6 5 8 10 5 6 -4 13 7 16 24 8 38 20 40
29 4 13 -53 24 0 31 143 4 76 12 166 19 199 13 59 13 56 15 -105 3 -172 5
-166 24 50 3 36 8 83 10 105 3 22 7 55 9 73 2 17 0 32 -5 32 -4 0 -8 11 -8 25
0 19 5 25 21 25 11 0 17 5 14 10 -4 6 -10 8 -15 5 -4 -3 -11 6 -14 20 -9 34
21 135 42 142 10 3 25 13 34 21 10 8 26 12 38 9 11 -3 20 -1 20 4 0 8 -6 10
-37 13 -7 1 -13 6 -12 11 0 6 13 9 29 7 24 -3 30 1 29 15 0 10 -3 13 -6 6 -7
-18 -30 -16 -37 3 -3 8 -3 26 0 40 4 14 2 24 -5 24 -6 0 -11 -9 -11 -21 0 -11
-6 -26 -13 -34 -11 -11 -16 -10 -26 7 -10 17 -9 22 5 32 12 9 14 15 6 20 -22
13 -13 26 11 17 15 -6 29 -4 42 5 17 13 16 14 -15 14 -31 0 -32 1 -15 13 17
13 17 14 -2 19 -16 4 -20 11 -16 32 6 32 30 34 42 3 5 -12 20 -34 32 -49 36
-41 104 -182 138 -283 27 -81 48 -187 81 -415 7 -48 11 -285 11 -652 l0 -578
799 0 c752 0 799 1 803 18 4 16 5 16 6 0 1 -16 28 -17 346 -18 l345 0 0 785
-1 785 -25 0 c-14 0 -22 4 -19 10 3 6 15 10 26 10 19 0 19 45 19 3780 l0 3780
-3287 -1 c-1809 -1 -3275 -4 -3259 -8 17 -3 29 -9 28 -13 -1 -5 -2 -12 -2 -17
0 -13 -74 -20 -81 -8 -4 5 -10 0 -14 -12 -5 -17 -14 -21 -48 -21 -23 0 -58 5
-77 10 -19 6 -206 13 -415 16 -209 3 -474 8 -590 10 -280 7 -565 12 -644 13
-86 1 -123 14 -61 21 25 3 -125 6 -332 6 l-378 2 0 -54z m3977 -1337 c6 2 16
-12 23 -31 11 -35 40 -69 40 -47 0 7 8 8 24 1 20 -7 25 -5 29 11 9 35 26 20
43 -38 9 -32 23 -65 31 -73 11 -12 11 -8 -2 22 -8 21 -15 48 -14 60 l0 23 9
-23 c16 -39 62 -93 76 -88 7 3 15 -3 19 -12 5 -14 7 -14 15 -2 6 9 5 17 -3 22
-9 6 -8 10 3 18 11 7 17 4 24 -10 5 -11 13 -20 18 -20 10 0 10 -3 -7 45 -8 22
-14 51 -14 65 0 22 3 20 17 -13 13 -28 20 -35 28 -27 8 8 15 -2 24 -37 15 -57
32 -81 20 -29 -4 21 -4 34 1 30 5 -3 9 -12 9 -20 0 -8 4 -13 9 -10 5 3 12 -1
15 -10 3 -8 10 -12 16 -9 6 4 17 -9 25 -27 16 -38 19 -29 17 67 l-1 60 13 -45
c11 -40 74 -180 81 -180 1 0 0 12 -2 28 -4 26 -3 26 11 -5 26 -56 27 -36 2 33
l-24 66 35 -33 c20 -19 34 -27 31 -19 -3 8 -2 41 2 73 3 31 2 57 -2 57 -4 0
-8 7 -8 15 0 23 17 18 23 -7 4 -13 4 -45 1 -72 -5 -50 3 -60 11 -16 9 47 23
42 33 -11 7 -40 10 -46 12 -24 l2 30 19 -40 18 -40 1 44 c0 37 2 42 14 31 8
-6 17 -21 19 -33 2 -12 5 -3 6 21 1 42 21 61 21 20 l0 -22 15 21 c9 12 15 26
14 30 -1 4 -1 16 0 26 1 21 21 23 21 2 0 -18 16 -20 24 -2 9 17 0 -24 -9 -47
-7 -17 -6 -17 16 -5 13 7 27 12 31 11 4 -1 22 20 40 46 36 52 50 40 24 -21
-12 -31 -12 -35 0 -30 8 3 14 11 14 18 0 7 7 18 16 26 13 10 17 10 23 0 6 -9
10 -5 15 13 6 25 26 37 26 16 0 -5 8 -7 18 -3 11 4 8 -1 -8 -15 l-25 -22 27 9
c40 15 71 34 86 54 7 9 17 17 23 17 16 0 -45 -61 -79 -79 l-34 -17 64 1 c35 1
78 6 97 10 24 6 32 5 27 -3 -3 -6 2 -13 11 -15 13 -3 11 -5 -6 -6 -19 -1 -21
-4 -12 -15 9 -11 19 -9 58 11 26 13 54 21 62 18 9 -3 12 -3 8 1 -8 8 11 34 25
34 6 0 8 -7 5 -14 -4 -11 -1 -13 11 -9 10 4 7 -2 -8 -15 -27 -23 -21 -29 13
-10 20 10 21 10 8 -5 -7 -10 -23 -17 -35 -18 -11 0 -30 -5 -41 -10 -14 -7 -8
-8 25 -4 24 3 50 10 56 16 12 10 45 17 89 18 17 1 17 3 5 11 -9 6 -10 10 -3
10 6 0 15 -4 18 -10 3 -5 33 -10 65 -10 47 0 58 -3 54 -14 -6 -15 -46 -24 -77
-18 -9 2 -15 8 -12 13 4 5 -1 9 -9 9 -25 0 -19 -18 12 -33 16 -9 37 -11 52 -6
44 13 90 10 90 -5 0 -9 17 -16 46 -21 25 -3 54 -14 64 -23 50 -47 102 -73 66
-34 -15 18 -15 19 9 30 15 7 25 8 25 2 0 -6 9 -10 19 -10 11 0 26 -7 35 -15 8
-8 19 -15 24 -15 5 0 21 -11 34 -25 20 -19 27 -22 31 -11 3 7 0 19 -6 26 -9
10 -9 11 3 8 8 -3 14 -13 14 -22 -1 -9 4 -16 12 -16 8 0 14 -4 14 -10 0 -5 9
-10 21 -10 11 0 18 -4 15 -9 -4 -5 7 -15 24 -23 16 -7 30 -19 30 -25 0 -7 4
-13 9 -13 4 0 22 -13 39 -30 18 -16 36 -30 41 -30 5 0 11 -9 14 -21 3 -11 19
-25 36 -32 17 -6 31 -17 31 -24 0 -7 7 -13 15 -13 8 0 15 -6 15 -14 0 -7 13
-16 29 -19 34 -7 65 -37 92 -89 11 -22 27 -38 37 -38 15 -1 15 -2 -2 -15 -19
-14 -18 -15 11 -26 35 -12 53 -47 49 -97 -2 -27 1 -33 22 -39 18 -4 21 -8 10
-15 -10 -7 -10 -10 5 -19 9 -5 17 -16 17 -23 0 -7 11 -23 25 -36 29 -28 32
-40 8 -40 -17 -1 -16 -2 1 -15 16 -12 17 -17 6 -30 -11 -14 -10 -17 8 -22 26
-6 29 -23 5 -23 -14 0 -14 -2 -1 -17 8 -10 24 -37 35 -60 17 -36 18 -45 7 -54
-10 -8 -14 -8 -14 0 0 6 -5 11 -10 11 -15 0 -7 -22 15 -41 16 -14 17 -20 8
-30 -9 -9 -9 -17 -1 -33 9 -16 8 -22 -5 -30 -13 -9 -13 -12 1 -35 12 -18 13
-26 4 -29 -6 -2 -12 -8 -12 -13 0 -13 41 -72 58 -82 6 -4 12 -15 12 -24 0 -13
-2 -13 -16 -2 -20 17 -54 22 -54 9 0 -21 43 -95 48 -82 2 8 -1 19 -7 25 -6 6
-11 18 -11 27 1 12 3 11 11 -4 6 -10 20 -27 30 -37 32 -32 24 -44 -26 -40 -12
1 -16 -1 -9 -6 11 -8 44 -66 44 -78 0 -11 -34 -4 -51 11 -24 22 -43 8 -20 -15
9 -9 25 -20 34 -24 10 -4 27 -22 38 -42 24 -39 34 -45 24 -14 -5 15 -4 19 5
14 6 -4 10 -16 7 -26 -3 -11 0 -25 6 -32 7 -7 19 -21 27 -32 11 -16 11 -17 0
-7 -24 21 -31 13 -14 -13 9 -14 14 -28 10 -32 -3 -3 -6 -1 -6 5 0 7 -4 12 -10
12 -6 0 -6 -9 0 -26 11 -27 5 -48 -11 -39 -5 4 -9 2 -9 -4 0 -5 4 -13 10 -16
5 -3 15 -15 21 -27 8 -15 8 -19 0 -14 -6 4 -11 2 -11 -4 0 -6 -5 -8 -12 -3
-16 9 -48 15 -48 8 0 -3 11 -10 25 -15 14 -5 25 -17 25 -27 1 -16 3 -15 19 4
16 19 20 20 25 7 9 -24 0 -31 -39 -29 -19 0 -35 0 -35 -1 0 -7 52 -54 60 -54
5 0 10 -7 10 -16 0 -9 -5 -12 -11 -8 -7 4 -10 1 -7 -7 3 -8 11 -13 17 -11 7 1
10 -2 6 -8 -3 -6 -10 -8 -15 -5 -5 3 -11 1 -15 -5 -3 -5 0 -10 8 -10 8 0 17
-9 20 -20 3 -13 1 -18 -6 -13 -11 7 -67 12 -67 7 0 -2 16 -10 35 -18 34 -15
51 -42 18 -29 -13 5 -15 2 -11 -15 6 -22 -15 -38 -35 -25 -6 4 -8 0 -4 -9 4
-12 0 -14 -16 -10 -20 5 -20 4 -8 -11 15 -19 41 -23 41 -7 0 6 7 10 17 10 15
0 15 -2 -1 -19 -10 -11 -15 -25 -11 -30 9 -16 -8 -13 -31 4 -20 15 -38 20 -30
7 2 -4 -12 -6 -32 -4 -21 1 -161 9 -312 16 -274 14 -315 19 -304 38 3 5 -3 8
-13 6 -11 -2 -27 3 -36 10 -10 9 -17 10 -22 2 -3 -5 -16 -10 -28 -10 -18 0
-19 -2 -7 -10 9 -6 10 -10 3 -10 -7 0 -16 6 -20 13 -12 20 -129 43 -147 28 -7
-6 -22 -9 -32 -5 -14 4 -15 3 -5 -4 9 -7 10 -11 2 -17 -7 -4 -17 -2 -24 3 -7
5 -30 12 -52 15 -22 3 -34 3 -27 0 33 -13 5 -21 -60 -17 -50 3 -68 1 -58 -6
26 -17 -48 -12 -87 7 -31 14 -46 15 -136 4 -56 -7 -109 -15 -117 -18 -8 -3
-31 -7 -50 -9 -19 -2 -39 -9 -45 -17 -16 -20 -85 -60 -85 -48 0 6 12 17 28 25
46 25 17 18 -38 -10 -32 -16 -55 -35 -61 -51 -7 -20 -15 -24 -35 -20 -13 2
-22 2 -19 -1 10 -10 -129 -50 -267 -78 -155 -30 -285 -34 -398 -9 -41 9 -90
19 -108 22 -18 3 -35 10 -38 14 -3 5 -14 9 -25 9 -11 0 -17 5 -14 10 3 6 1 10
-4 10 -6 0 -21 16 -33 35 -15 21 -34 37 -53 41 -16 4 -24 9 -17 12 10 3 9 8
-4 23 -9 10 -21 16 -26 13 -4 -3 -7 0 -6 8 2 9 -7 12 -30 10 -21 -1 -35 3 -38
13 -9 23 -67 34 -218 40 -96 4 -142 2 -152 -6 -10 -8 -22 -8 -45 0 -18 6 -51
11 -75 11 -24 0 -46 5 -49 10 -3 6 -1 10 6 10 7 0 10 3 6 6 -3 4 -25 -1 -49
-11 -28 -11 -44 -13 -46 -6 -2 6 -13 11 -23 11 -13 0 -18 4 -13 12 5 8 -8 10
-49 5 -49 -5 -55 -3 -49 11 5 15 4 15 -12 0 -9 -10 -28 -18 -42 -18 -13 0 -24
-4 -24 -9 0 -4 -34 -7 -75 -6 -53 2 -77 -1 -83 -10 -4 -8 -20 -16 -37 -20
l-30 -7 35 31 c41 36 35 39 -17 11 -21 -11 -43 -20 -50 -20 -7 0 -13 -7 -13
-15 0 -8 -6 -15 -13 -15 -7 0 -30 -9 -51 -20 -40 -20 -201 -40 -328 -40 l-67
0 -6 35 c-15 97 -23 158 -30 229 -2 22 1 48 7 60 7 13 7 21 1 23 -6 2 -8 15
-5 28 2 15 0 25 -7 25 -6 0 -11 7 -11 15 0 8 5 15 10 15 6 0 10 7 10 15 0 8
-4 15 -9 15 -13 0 -7 86 8 104 16 19 21 75 10 97 -5 9 -3 24 5 35 7 10 22 35
34 56 22 36 22 36 2 31 -14 -4 -20 0 -20 11 0 9 5 16 11 16 5 0 7 -6 3 -12 -4
-7 3 -3 14 9 12 12 24 33 28 47 3 14 10 26 15 26 9 0 4 53 -7 71 -4 8 -3 9 4
5 6 -4 17 2 24 14 7 11 18 20 24 20 16 0 28 34 15 38 -7 2 -8 10 -1 22 7 13 6
20 -1 22 -11 4 -6 31 23 108 8 23 7 23 -16 -5 -13 -16 -27 -28 -30 -25 -9 9
17 82 48 135 18 29 29 63 29 82 -1 25 2 30 15 26 12 -5 14 -2 8 12 -9 24 20
107 56 163 15 24 28 49 28 57 0 7 6 20 14 27 7 8 16 24 20 36 4 12 25 44 47
72 21 27 39 52 39 55 0 4 11 21 25 39 26 34 32 52 15 41 -21 -13 -8 8 22 37
23 22 28 32 19 37 -10 6 -9 10 4 15 9 3 14 10 10 16 -7 11 38 60 87 96 17 13
25 24 18 24 -32 0 45 55 78 56 19 1 37 6 41 13 4 6 17 13 29 16 42 8 48 20 13
25 -39 6 -55 30 -21 30 15 0 20 5 17 14 -8 19 11 25 48 14 32 -9 69 -10 47 -1
-6 2 -9 9 -6 15 4 6 -1 8 -14 4 -13 -4 -22 -1 -25 8 -10 25 8 27 51 6 49 -24
53 -24 46 -5 -4 8 -3 15 1 15 3 0 13 -7 21 -15 16 -15 65 -21 63 -7 -3 20 3
30 22 35 12 3 18 10 14 16 -4 7 4 11 19 11 14 0 27 -4 30 -9 3 -4 17 -6 31 -4
13 3 22 10 19 15 -8 12 55 0 73 -14 7 -5 12 -5 15 2 3 11 115 -30 152 -56 11
-8 24 -14 29 -14 5 0 -23 21 -62 48 -39 26 -71 51 -71 56 0 4 18 6 41 4 41 -4
41 -4 19 14 -12 10 -33 18 -46 18 -23 0 -32 14 -16 24 14 8 83 -14 77 -24 -3
-5 15 -19 40 -31 25 -12 45 -25 45 -30 0 -12 59 -41 73 -35 7 2 5 5 -4 5 -22
1 -43 27 -33 42 5 8 9 7 16 -5 16 -29 35 -19 30 15 -3 22 -1 30 7 25 15 -10
14 9 -2 26 -7 7 -23 29 -37 48 -20 29 -20 32 -4 17 12 -9 23 -15 26 -12 3 3
22 -16 42 -43 20 -28 42 -52 49 -55 17 -6 37 17 27 33 -6 10 -9 10 -13 -1 -2
-8 -3 -5 -1 7 2 12 -5 29 -15 38 -12 11 -17 25 -13 39 5 21 6 21 16 -4 6 -14
16 -24 23 -22z m3716 -664 c103 -9 102 -21 -4 -191 l-64 -102 -295 2 c-162 1
-301 3 -308 6 -19 6 -39 62 -48 128 -4 32 -15 72 -25 89 -29 47 -25 63 19 68
64 6 654 7 725 0z m-4311 -1838 c165 -15 351 -42 298 -44 -14 0 -81 6 -150 14
-203 25 -640 29 -1001 11 -363 -18 -355 -18 -345 -9 3 4 109 14 234 24 298 22
739 24 964 4z m2598 4 c-386 -13 -595 -40 -965 -124 -104 -23 -208 -46 -230
-50 -83 -14 -23 5 165 54 263 68 379 87 720 120 47 5 189 8 315 8 l230 0 -235
-8z m-2997 -72 c-30 -11 -25 -12 59 -15 51 -1 95 -6 98 -11 3 -4 26 -8 52 -9
31 0 66 -10 105 -30 32 -16 71 -32 86 -36 15 -3 25 -11 22 -16 -3 -6 5 -10 19
-10 33 0 75 -38 55 -50 -8 -6 0 -11 24 -15 20 -4 37 -11 37 -16 0 -18 -159
-23 -310 -9 -8 1 -31 -1 -51 -5 -21 -3 -39 -2 -43 3 -3 5 -20 6 -38 4 -29 -4
-30 -6 -13 -14 14 -6 7 -7 -22 -4 -65 6 -123 -4 -123 -22 0 -11 -8 -13 -34 -9
-18 3 -38 1 -42 -3 -5 -5 -36 -10 -69 -12 -52 -3 -60 -6 -60 -23 0 -13 8 -21
23 -23 25 -4 28 -19 7 -46 -20 -27 -10 -36 41 -36 32 0 44 -4 42 -12 -9 -26
-54 -32 -132 -17 -64 13 -79 13 -98 1 -23 -13 -22 -13 6 -9 41 7 70 -5 36 -14
-27 -7 -20 -12 33 -23 15 -4 27 -12 26 -19 -4 -29 4 -36 54 -42 71 -9 87 -14
84 -28 -1 -7 5 -10 13 -8 51 13 61 12 94 -14 30 -23 39 -25 51 -15 9 8 29 10
50 7 24 -4 33 -2 29 5 -5 7 2 9 20 4 32 -8 66 0 66 16 0 6 -10 8 -23 5 -25 -7
-41 1 -50 25 -7 20 15 30 48 22 19 -5 22 -2 18 18 -6 31 27 68 59 68 21 0 31
-10 53 -55 14 -30 36 -60 47 -66 28 -15 273 -6 310 11 17 8 34 30 47 60 22 51
37 56 82 27 19 -12 25 -24 22 -37 -11 -40 4 -66 39 -68 18 -1 66 -6 106 -10
61 -7 75 -6 87 8 13 15 12 19 -10 40 -42 39 -33 50 34 44 64 -5 63 -5 78 71 2
10 9 23 16 27 37 23 3 -234 -53 -403 -71 -213 -157 -360 -255 -431 -24 -18
-44 -38 -45 -44 0 -15 -76 -47 -157 -68 -119 -31 -463 -50 -478 -26 -3 5 -33
8 -68 5 -37 -3 -52 -2 -37 3 19 6 6 11 -60 21 -89 13 -218 47 -284 75 -22 9
-41 14 -43 12 -2 -2 21 -14 51 -27 31 -12 54 -24 52 -27 -9 -8 -117 48 -111
57 3 6 -7 17 -22 25 -110 57 -209 263 -259 539 -31 167 -20 469 17 493 5 3 6
-3 2 -13 -6 -15 -5 -16 9 -3 10 10 13 19 7 26 -15 19 39 74 98 100 87 39 322
79 473 82 l35 0 -32 -11z m3492 -66 c108 -49 150 -123 163 -289 20 -250 -50
-617 -145 -756 -43 -63 -47 -70 -34 -62 20 13 12 -3 -16 -29 -67 -63 -223
-130 -277 -120 -23 5 -27 4 -16 -4 9 -6 10 -11 3 -11 -6 0 -20 -3 -30 -6 -15
-5 -16 -4 -3 6 12 10 11 11 -10 6 -14 -3 -31 -6 -38 -6 -7 0 -11 -3 -9 -7 3
-5 -22 -8 -56 -8 -33 -1 -62 -5 -64 -10 -2 -6 -86 -9 -212 -8 -170 1 -228 6
-306 23 -252 54 -361 143 -489 398 -46 91 -106 254 -106 286 0 9 5 16 10 16 6
0 10 -4 10 -9 0 -14 31 -84 35 -79 2 2 -2 26 -10 53 -24 80 -23 79 -40 65 -11
-9 -15 -5 -20 23 -4 20 -4 45 0 57 4 12 1 51 -6 86 -11 54 -11 67 0 73 8 5 11
17 7 28 -8 24 14 46 33 34 11 -7 9 -11 -5 -20 -13 -7 -16 -13 -7 -18 8 -6 9
-22 2 -56 -5 -31 -5 -56 1 -67 12 -23 13 -73 1 -66 -8 5 -20 -24 -21 -46 0
-19 29 -6 32 15 2 13 9 21 18 19 8 -2 19 3 25 10 15 19 135 48 135 33 0 -7 -7
-18 -15 -25 -8 -7 -15 -24 -15 -37 0 -24 2 -25 37 -18 20 3 79 9 132 11 53 3
104 6 114 7 21 2 23 27 1 27 -13 0 -15 6 -9 27 9 36 8 35 51 37 34 1 37 -2 54
-44 12 -30 25 -47 41 -52 13 -4 56 -16 95 -28 40 -12 103 -22 146 -23 90 -2
106 8 139 89 13 30 28 54 34 54 26 0 76 -33 89 -58 12 -23 12 -30 0 -46 -18
-25 -10 -36 21 -30 34 6 33 -19 -2 -32 l-27 -9 25 -27 c23 -24 29 -26 90 -21
44 4 69 2 73 -6 9 -14 63 -15 71 -1 3 6 0 10 -7 11 -7 0 -2 6 12 12 14 6 27
15 30 19 3 4 27 8 53 10 29 2 47 8 47 16 0 6 9 12 20 12 11 0 25 9 32 20 9 14
25 20 53 21 38 1 37 2 -20 14 l-60 12 33 13 c17 6 32 17 32 23 0 17 -32 47
-50 47 -10 0 -23 7 -30 15 -9 11 -9 15 -1 15 7 0 9 5 6 10 -4 6 -16 8 -28 5
-15 -4 -18 -3 -9 3 16 11 0 26 -39 36 -15 3 -29 15 -32 26 -6 25 -34 26 -41 3
-3 -11 -4 -7 -3 7 1 16 -3 24 -11 22 -8 -1 -35 -5 -60 -8 -37 -4 -44 -3 -32 6
12 9 9 11 -16 6 -18 -3 -35 -2 -38 1 -9 9 -28 12 -111 18 -38 3 -95 10 -125
16 -30 6 -73 12 -95 14 -22 2 -60 8 -85 13 l-45 9 53 8 c49 7 83 25 47 25 -9
0 -13 5 -9 11 4 7 24 9 50 6 33 -3 44 -1 44 9 0 10 15 14 53 15 28 0 46 3 40
6 -7 2 -13 9 -13 14 0 10 56 2 88 -14 18 -9 25 -8 32 3 11 17 138 21 148 4 10
-15 92 -39 124 -36 27 3 50 -21 41 -43 -2 -6 6 -21 18 -34 19 -21 28 -22 120
-20 68 2 103 7 111 16 6 7 25 13 42 13 17 0 39 6 48 14 15 11 16 19 7 51 -16
56 -54 111 -86 124 -15 6 -35 15 -43 20 -22 14 -53 24 -66 22 -6 0 -24 6 -40
15 l-29 16 40 -7 c21 -4 66 -19 100 -34z m-2950 -206 c28 -9 33 -13 18 -14
-15 -1 -21 -6 -17 -16 5 -11 0 -13 -23 -6 -31 9 -150 7 -181 -4 -26 -8 -59
-15 -98 -20 -17 -3 -44 -9 -58 -15 -15 -5 -43 -10 -62 -10 -19 0 -33 -4 -30
-9 3 -5 -3 -11 -14 -14 -21 -6 -56 31 -42 44 17 17 102 48 102 37 0 -6 8 -2
18 10 22 25 49 29 217 30 83 0 145 -4 170 -13z m-12 -2073 c51 -18 88 -22 108
-11 11 6 19 6 19 0 0 -5 17 -12 37 -16 21 -4 41 -12 45 -18 5 -9 12 -9 25 -1
21 13 133 -13 146 -34 7 -10 12 -10 23 -1 11 9 14 8 14 -5 0 -9 5 -16 10 -16
6 0 10 5 10 11 0 6 8 18 17 27 16 16 16 16 11 0 -4 -9 -1 -19 7 -22 10 -3 12
0 8 12 -6 14 -4 15 9 5 8 -7 18 -10 21 -6 4 3 13 1 21 -6 15 -13 146 -12 146
1 0 4 15 8 34 8 18 0 39 7 46 15 7 8 16 15 21 15 5 0 6 -7 3 -15 -8 -20 20
-20 37 1 7 9 21 13 33 10 11 -3 25 -1 31 4 8 7 18 3 30 -10 14 -15 21 -17 32
-9 10 9 13 7 13 -11 0 -16 4 -21 16 -16 9 4 27 -1 40 -9 22 -14 24 -14 24 1 0
10 5 14 15 10 9 -3 15 0 15 9 0 20 24 19 41 -1 7 -8 21 -13 31 -11 10 3 18 1
18 -4 0 -4 7 -6 15 -3 9 4 15 0 15 -7 0 -12 2 -12 9 0 6 10 10 10 16 1 5 -8
12 -7 25 5 17 15 18 15 16 -2 -1 -19 10 -21 131 -26 34 -1 65 -5 69 -9 4 -4
14 -3 21 4 11 9 17 9 24 -3 5 -8 7 -20 4 -26 -2 -7 0 -13 5 -13 6 0 10 9 10
20 0 11 2 20 4 20 2 0 11 3 19 6 10 3 16 -3 19 -21 4 -18 2 -25 -7 -21 -8 3
-11 -2 -9 -12 4 -17 -51 -52 -81 -52 -8 0 -15 -7 -15 -15 0 -8 5 -15 10 -15 6
0 10 -7 10 -15 0 -23 15 -18 43 16 23 28 32 32 84 33 l58 1 -1 -73 -2 -73 42
6 c22 4 46 13 53 21 6 9 21 16 34 17 12 1 24 10 27 20 2 10 10 16 16 14 6 -3
25 1 43 9 24 9 33 10 37 1 3 -8 9 -6 16 6 6 9 28 24 48 32 20 9 39 19 42 23 8
11 80 58 125 81 54 29 72 26 91 -11 10 -18 19 -27 21 -20 5 13 34 17 32 5 -1
-5 -1 -15 1 -23 1 -11 4 -9 10 5 6 15 9 8 9 -27 1 -47 -13 -65 -22 -30 -3 9
-5 -2 -6 -25 0 -23 -6 -43 -13 -45 -9 -3 -8 -9 5 -22 9 -10 17 -22 17 -28 0
-12 -32 -71 -44 -79 -4 -4 -5 -16 -1 -28 4 -13 1 -28 -5 -36 -10 -12 -9 -15 5
-15 13 0 16 -6 13 -30 -3 -17 1 -31 8 -34 6 -2 9 -15 7 -30 -3 -14 -9 -24 -13
-21 -5 3 -11 -1 -13 -7 -7 -17 -25 7 -34 45 -3 15 -9 29 -12 32 -12 7 -6 -44
7 -57 16 -16 15 -33 -3 -48 -8 -7 -15 -20 -15 -29 0 -14 2 -14 10 -1 5 8 10
11 10 5 0 -30 -17 -37 -50 -20 -47 24 -48 11 -1 -16 37 -21 49 -45 16 -33 -9
4 -18 -3 -24 -17 -5 -13 -18 -32 -29 -42 -17 -16 -20 -16 -25 -2 -4 8 -12 15
-18 15 -7 0 -5 -10 6 -26 17 -26 14 -60 -5 -49 -6 3 -17 -1 -25 -9 -9 -8 -23
-12 -32 -9 -13 5 -13 2 3 -22 l19 -29 10 28 c10 28 22 30 69 11 15 -7 17 -5
11 13 -7 24 4 29 23 10 17 -17 15 -58 -3 -58 -8 0 -15 3 -15 8 0 4 -16 8 -35
9 -29 1 -35 -2 -35 -18 0 -10 -5 -19 -10 -19 -6 0 -8 -11 -4 -25 4 -18 2 -25
-7 -25 -20 1 -59 36 -59 53 0 10 -7 13 -19 10 -20 -5 -39 -35 -19 -30 6 1 14
-11 19 -27 4 -16 25 -46 45 -67 l36 -37 20 20 c17 17 18 24 9 45 -9 19 -9 24
1 20 7 -2 12 -10 10 -17 -2 -8 3 -10 13 -6 23 9 -1 -33 -36 -63 -16 -13 -29
-30 -29 -37 0 -8 -4 -14 -10 -14 -5 0 -10 5 -10 10 0 6 -5 10 -10 10 -6 0 -4
-13 5 -30 19 -37 19 -46 0 -30 -9 8 -15 8 -15 2 0 -6 -10 -12 -22 -14 -30 -4
-46 -58 -17 -58 21 0 25 -15 7 -26 -6 -4 -14 -2 -16 4 -2 7 -10 12 -17 12 -12
0 -31 36 -27 52 2 10 -28 31 -35 24 -4 -4 -3 -10 3 -14 5 -4 9 -19 9 -34 -1
-16 4 -28 11 -28 14 0 24 -23 24 -56 0 -33 -16 -22 -23 16 -5 23 -10 28 -24
23 -17 -7 -17 -8 0 -11 9 -2 17 -10 17 -18 0 -17 -12 -18 -29 -1 -10 10 -10 7
-2 -15 10 -26 9 -28 -15 -28 -16 0 -23 4 -18 11 3 6 0 15 -7 20 -26 16 -30 9
-13 -23 10 -21 11 -28 3 -20 -17 16 -29 15 -29 -3 0 -8 8 -15 18 -16 11 0 12
-2 4 -6 -9 -4 -11 -21 -6 -66 6 -58 5 -61 -10 -42 -8 11 -16 26 -16 33 0 6 -5
12 -11 12 -6 0 -9 -10 -8 -22 5 -33 -9 -52 -27 -37 -8 6 -14 19 -14 28 0 13
-2 13 -9 2 -5 -8 -14 -10 -22 -6 -9 6 -11 3 -6 -8 3 -10 2 -17 -2 -17 -5 0
-17 -3 -26 -6 -10 -4 -15 -2 -13 7 2 7 -4 13 -12 14 -8 1 -14 6 -12 13 1 7 -3
12 -8 12 -19 0 -52 38 -45 51 5 8 4 10 -3 5 -6 -4 -23 1 -37 10 -14 9 -25 12
-25 8 0 -5 13 -18 29 -28 15 -11 37 -35 47 -54 10 -19 29 -38 41 -43 13 -5 23
-13 23 -19 0 -5 6 -10 14 -10 8 0 17 -7 20 -16 9 -23 2 -28 -13 -10 -7 8 -19
12 -27 9 -10 -4 -12 0 -8 11 4 11 0 16 -14 16 -12 0 -24 5 -27 10 -3 6 -15 10
-26 10 -11 0 -17 -5 -14 -10 3 -6 3 -19 0 -31 -5 -16 -10 -18 -21 -8 -19 16
-18 33 2 25 15 -6 15 -4 3 10 -9 11 -15 12 -17 5 -4 -13 -72 52 -72 69 0 5 -4
10 -10 10 -5 0 -7 -7 -3 -16 5 -13 2 -15 -15 -9 -26 7 -28 0 -7 -21 8 -9 20
-12 25 -9 14 9 38 -11 57 -49 15 -29 15 -30 0 -18 -9 8 -19 22 -22 33 -9 27
-28 24 -20 -3 4 -16 4 -19 -3 -9 -5 7 -14 11 -20 7 -6 -3 -17 1 -25 9 -32 32
-38 7 -7 -32 24 -30 27 -51 4 -29 -8 9 -18 16 -21 16 -6 0 12 -24 40 -53 10
-10 16 -22 12 -25 -3 -4 -9 -2 -13 3 -4 6 -14 11 -22 13 -8 2 -25 12 -36 24
-13 11 -24 15 -28 10 -7 -11 19 -42 35 -42 5 0 9 -5 9 -11 0 -8 -5 -8 -15 1
-8 7 -15 9 -15 6 0 -4 -7 0 -16 8 -8 9 -20 16 -25 16 -14 0 -11 -18 5 -27 19
-12 38 -51 27 -58 -5 -3 -12 4 -16 15 -3 11 -12 26 -18 32 -16 18 -58 104 -55
115 3 10 -53 106 -58 100 -3 -2 7 -24 21 -48 30 -54 33 -85 5 -50 -24 28 -24
28 -6 -29 11 -34 15 -39 16 -20 1 22 3 20 20 -15 24 -50 24 -50 0 -52 -13 -1
-20 4 -20 15 0 15 -2 15 -10 2 -9 -13 -11 -13 -19 -1 -10 15 -54 24 -45 9 10
-15 12 -88 3 -88 -5 0 -9 9 -9 19 0 11 -5 23 -11 26 -6 4 -8 13 -5 21 3 7 -3
18 -12 24 -13 8 -14 11 -4 18 9 6 11 18 6 36 l-6 27 -24 -22 c-26 -24 -30 -20
-14 12 7 12 7 25 1 37 -5 9 -12 34 -15 55 -6 36 -5 37 23 37 38 0 54 -22 49
-65 -3 -26 -1 -34 9 -31 7 3 13 1 13 -4 0 -6 5 -10 11 -10 8 0 8 4 0 14 -7 8
-14 35 -16 61 -5 52 -11 65 -28 65 -7 0 -6 -4 3 -10 8 -5 13 -10 10 -11 -11
-1 -90 -4 -90 -2 0 1 -3 8 -6 17 -5 12 1 16 22 16 26 1 27 2 12 14 -13 9 -16
22 -12 48 5 29 2 38 -17 51 -12 9 -19 20 -15 24 4 4 11 1 16 -6 4 -8 15 -11
23 -8 19 7 39 -15 32 -34 -3 -8 4 -18 17 -24 13 -6 22 -16 20 -23 -1 -7 10
-12 30 -12 29 0 30 1 14 13 -16 12 -17 15 -3 20 21 8 102 -58 91 -75 -3 -5
-15 3 -26 17 -10 14 -24 25 -30 25 -7 0 -7 -4 1 -13 6 -8 8 -17 4 -21 -4 -4 0
-4 10 0 12 4 17 1 17 -10 0 -9 11 -22 25 -28 14 -6 24 -17 21 -23 -3 -8 4 -10
20 -7 13 2 24 8 24 13 0 5 -3 8 -7 7 -12 -4 -54 28 -46 35 3 4 14 7 24 7 9 0
19 7 22 15 5 11 0 13 -21 9 -23 -5 -32 1 -57 32 -32 39 -48 55 -79 77 -14 10
-16 16 -7 21 7 5 26 -8 49 -31 48 -50 84 -69 108 -55 16 9 13 12 -24 27 -56
23 -49 28 16 13 37 -9 51 -17 47 -27 -4 -10 2 -12 22 -8 16 4 22 4 16 1 -23
-10 -14 -24 15 -24 15 0 33 -5 40 -12 8 -8 12 -8 12 -1 0 5 -12 22 -26 36 -24
24 -24 26 -7 36 13 9 14 11 3 10 -33 -3 -42 1 -36 18 4 9 1 20 -6 25 -20 12
-82 10 -96 -4 -8 -8 -12 -9 -12 -1 0 6 -18 14 -40 18 -22 4 -40 11 -40 16 0 5
-12 14 -27 20 -22 8 -24 12 -13 19 9 6 16 6 18 0 6 -17 22 -11 22 7 0 16 1 16
13 0 25 -33 143 -69 157 -47 4 6 32 14 64 17 31 3 59 11 63 17 3 6 3 8 -1 4
-5 -4 -19 -3 -31 2 -16 6 -25 5 -28 -3 -2 -7 -23 -12 -49 -12 -26 0 -44 -3
-41 -7 2 -5 0 -8 -6 -8 -5 0 -13 5 -16 10 -3 6 -2 10 3 10 6 0 12 7 15 14 4 9
1 13 -6 11 -7 -3 -37 18 -67 45 -52 48 -88 70 -137 84 -20 7 -21 5 -13 -24 5
-16 5 -30 1 -30 -11 0 -32 26 -26 31 2 3 -5 5 -15 6 -21 2 -25 -13 -22 -92 1
-22 -1 -34 -4 -27 -3 6 -9 10 -14 7 -11 -7 -7 119 5 127 5 4 6 10 2 15 -5 4
-12 1 -18 -7 -8 -13 -10 -13 -18 0 -6 8 -14 11 -18 6 -4 -4 2 -15 15 -23 15
-11 22 -25 21 -47 -1 -21 -3 -25 -6 -11 -8 34 -32 53 -58 47 -14 -2 -33 -1
-42 3 -10 5 -21 7 -25 7 -13 -3 -9 16 5 21 6 3 -1 6 -16 6 -18 1 -37 -8 -52
-25 -22 -24 -25 -25 -26 -8 0 18 -1 18 -9 -1 -8 -19 -9 -19 -9 0 -1 14 -4 16
-13 7 -8 -8 -15 -8 -24 -1 -17 14 -64 -34 -64 -64 0 -16 -3 -17 -15 -7 -8 7
-15 9 -15 4 0 -4 -6 1 -14 12 -9 12 -12 30 -9 49 l6 30 -26 -31 c-24 -28 -26
-37 -20 -80 6 -45 31 -84 55 -84 4 0 8 -8 8 -17 0 -14 -4 -13 -24 6 -16 15
-26 19 -31 12 -10 -18 -24 -3 -18 19 3 11 0 20 -6 20 -6 0 -11 -7 -11 -15 0
-9 -7 -18 -16 -22 -13 -5 -13 -7 -2 -14 7 -5 21 -9 31 -9 10 0 26 -8 35 -17
16 -16 16 -16 0 -11 -27 11 -45 -21 -37 -67 3 -22 7 -32 8 -23 0 9 6 20 12 24
8 5 10 -3 7 -24 -2 -17 -1 -29 4 -26 10 6 10 9 -6 -53 -13 -47 -12 -52 4 -56
13 -3 16 -12 12 -38 -2 -19 -10 -41 -17 -49 -7 -8 -15 -26 -19 -40 -3 -14 -18
-38 -31 -55 l-25 -30 15 44 c19 56 19 74 -1 36 -8 -16 -26 -44 -40 -62 -13
-17 -24 -36 -24 -42 0 -6 -4 -11 -10 -11 -10 0 23 85 42 107 6 8 9 16 6 18 -2
3 -15 -13 -27 -35 -26 -47 -30 -49 -23 -15 2 14 0 25 -5 25 -15 0 -33 -23 -34
-44 -1 -18 -2 -17 -8 4 -5 16 -2 36 7 55 8 17 19 38 23 47 5 10 9 21 9 24 0
12 -32 -20 -41 -41 -9 -19 -9 -19 -5 3 8 41 -10 23 -22 -23 -14 -53 -38 -63
-28 -12 6 30 4 34 -15 32 -12 -1 -30 -11 -40 -23 -18 -23 -35 -31 -23 -10 5 8
2 9 -9 5 -38 -14 -5 77 39 112 l29 23 -37 -22 c-37 -21 -53 -14 -23 10 8 7 15
20 15 29 -1 12 -6 10 -20 -9 -36 -45 -41 -50 -51 -50 -5 0 -7 11 -3 25 4 15 2
25 -5 25 -6 0 -8 -6 -5 -14 7 -17 -23 -29 -43 -17 -13 7 -10 14 18 41 28 27
30 31 9 20 -14 -7 -29 -19 -33 -26 -4 -8 -15 -14 -24 -14 -13 0 -13 3 -3 15 7
8 9 15 4 14 -5 0 -26 -21 -46 -45 -21 -25 -38 -40 -38 -34 0 17 31 73 49 88 9
8 -1 4 -21 -8 -21 -12 -38 -17 -38 -12 0 12 75 74 82 67 2 -2 4 4 5 14 1 16
-2 17 -22 7 -13 -6 -21 -14 -19 -18 5 -8 -41 -45 -68 -54 -35 -11 -31 4 5 19
19 8 38 20 41 26 9 14 -7 14 -21 0 -13 -13 -73 -21 -73 -9 0 5 15 13 33 18
l32 9 -34 10 c-19 5 -37 15 -39 23 -4 13 -3 13 10 2 10 -7 19 -9 22 -4 3 6 -4
12 -16 16 -15 3 -30 -2 -46 -17 -20 -19 -22 -19 -16 -3 6 15 4 17 -6 11 -10
-6 -12 -4 -7 9 5 14 3 17 -8 12 -25 -9 -17 11 12 32 40 29 21 38 -27 15 -43
-22 -49 -20 -23 9 15 17 15 18 -5 18 -25 0 -28 16 -8 39 7 9 17 27 20 41 7 24
6 24 -9 -2 -9 -16 -20 -28 -25 -28 -14 0 -13 17 1 26 8 4 7 9 -2 15 -11 6 -7
15 16 39 32 34 21 41 -18 10 -27 -22 -47 -26 -47 -10 0 6 5 10 10 10 6 0 5 6
-2 14 -7 8 -16 12 -20 9 -4 -2 -5 4 -1 13 5 13 3 15 -8 9 -12 -8 -12 -6 0 8 7
9 16 15 20 13 4 -3 6 7 5 22 -2 36 -2 36 -20 21 -13 -10 -17 -10 -25 2 -5 8
-9 10 -9 4 -1 -21 -20 21 -20 44 0 16 4 21 14 18 12 -5 13 -1 4 23 -8 25 -6
34 11 56 12 15 21 32 21 38 0 6 -9 -4 -20 -21 -24 -40 -35 -42 -26 -7 6 23 4
26 -13 21 -20 -5 -20 -4 -5 25 15 29 15 29 -8 26 -13 -2 -22 -9 -20 -17 3 -17
-7 -51 -16 -51 -4 0 -7 16 -6 36 1 36 16 59 37 59 7 0 13 10 15 23 4 26 -5 28
-30 5 -10 -9 -18 -12 -18 -6 0 15 -40 9 -52 -8 -7 -10 -8 -5 -5 20 4 30 3 32
-9 16 -22 -30 -29 7 -9 46 16 30 16 31 0 26 -10 -4 -14 -3 -9 4 4 6 0 15 -7
20 -10 6 -11 9 -1 9 6 0 12 12 12 26 0 17 -4 23 -12 18 -8 -5 -9 -2 -5 10 18
45 18 63 3 69 -9 4 -16 2 -16 -3 0 -5 -5 -21 -11 -37 l-12 -28 -7 28 c-5 15
-4 43 2 63 5 20 7 38 4 42 -3 3 -9 -9 -12 -26 -4 -18 -10 -32 -15 -32 -12 0
-11 7 1 31 6 10 7 19 2 19 -5 0 -14 -18 -21 -40 -6 -22 -15 -40 -19 -40 -4 0
-15 18 -25 40 -17 41 -31 50 -41 28 -3 -7 -4 -4 -3 8 1 12 -12 34 -31 53 -26
27 -30 36 -21 47 7 8 9 17 5 21 -3 3 9 16 27 27 29 18 30 21 11 24 -20 3 -21
6 -11 45 12 50 27 71 27 38 0 -12 4 -19 10 -16 19 12 22 -26 7 -86 l-15 -60
24 27 c16 17 23 32 19 45 -4 10 -3 29 1 42 7 20 8 20 20 -13 l12 -35 1 33 c1
43 17 41 32 -5 14 -43 17 -61 18 -117 1 -47 16 -38 24 14 3 24 -1 48 -15 75
-16 33 -18 51 -13 105 4 35 11 74 16 87 6 17 5 21 -6 16 -20 -7 -19 11 2 50 9
18 18 26 20 20 6 -16 30 -17 35 -2 5 15 102 -7 118 -26 7 -8 28 -19 48 -26 40
-13 79 -38 127 -80 35 -31 62 -42 70 -29 8 13 49 -10 94 -50 50 -45 66 -42 62
13 -2 31 1 39 21 46 19 8 20 10 4 10 -24 1 -100 45 -142 81 -24 21 -29 31 -22
44 5 9 6 16 1 15 -28 -5 -34 1 -22 23 12 22 12 22 20 3 6 -17 8 -15 9 10 1 17
4 23 7 14 2 -8 18 -20 36 -27z m-3018 -317 c266 -10 381 -15 580 -25 110 -5
297 -12 415 -15 118 -3 298 -10 400 -15 102 -6 210 -12 240 -13 53 -2 55 -3
53 -30 -2 -30 13 -38 19 -9 2 11 6 13 11 5 4 -6 0 -18 -8 -26 -8 -9 -14 -24
-14 -34 1 -17 2 -17 6 0 5 20 8 21 35 6 15 -8 18 -17 14 -35 -9 -36 3 -74 25
-74 10 0 23 -9 29 -20 6 -11 17 -20 25 -20 21 0 33 -29 32 -83 0 -35 5 -52 19
-63 11 -9 15 -17 8 -20 -15 -6 -5 -64 11 -64 16 0 30 -36 26 -64 -4 -25 -19
-39 -61 -55 -19 -8 -48 -22 -65 -31 -29 -17 -82 -35 -170 -58 -22 -6 -66 -18
-98 -27 -57 -17 -60 -17 -130 6 -61 20 -93 23 -217 23 -152 0 -217 -9 -337
-50 -39 -13 -78 -24 -85 -24 -8 0 -37 -11 -64 -24 -44 -21 -55 -23 -109 -14
-94 15 -285 -1 -285 -23 0 -5 -11 -7 -24 -3 -14 3 -37 -1 -55 -11 -17 -9 -35
-13 -40 -11 -13 9 -71 -14 -71 -28 0 -7 -16 -12 -37 -12 -21 0 -81 -10 -133
-21 -142 -33 -248 -53 -276 -53 -14 0 -37 -6 -52 -14 -42 -20 -102 -28 -102
-11 0 7 15 16 33 19 19 3 34 12 35 19 0 6 5 39 10 72 9 51 8 62 -6 72 -14 11
-14 14 0 30 28 33 51 379 28 423 -8 16 -8 20 4 20 16 0 20 26 34 233 6 93 12
131 23 138 8 5 10 9 4 10 -25 5 95 16 135 13 25 -2 108 -6 185 -9z"/>
</g>
</svg>
